<mxfile host="localhost" modified="2020-05-14T03:28:26.403Z" agent="5.0 (Windows NT 10.0; Win64; x64) AppleWebKit/537.36 (KHTML, like Gecko) Code/1.45.0 Chrome/78.0.3904.130 Electron/7.2.4 Safari/537.36" etag="9Eod283Hl3mEgI1et9S0" version="13.0.9">
    <diagram id="3xspzi98UXfjYOG-OL3M" name="Page-1">
        <mxGraphModel dx="1393" dy="432" grid="1" gridSize="10" guides="1" tooltips="1" connect="1" arrows="1" fold="1" page="1" pageScale="1" pageWidth="827" pageHeight="1169" math="0" shadow="0">
            <root>
                <mxCell id="0"/>
                <mxCell id="1" parent="0"/>
                <mxCell id="W2VD9z1xtTbjaSC_eACu-20" style="edgeStyle=orthogonalEdgeStyle;rounded=0;orthogonalLoop=1;jettySize=auto;html=1;entryX=0.5;entryY=0;entryDx=0;entryDy=0;fillColor=#f5f5f5;strokeColor=#666666;" parent="1" source="W2VD9z1xtTbjaSC_eACu-1" target="W2VD9z1xtTbjaSC_eACu-2" edge="1">
                    <mxGeometry relative="1" as="geometry">
                        <Array as="points">
                            <mxPoint x="440" y="60"/>
                            <mxPoint x="180" y="60"/>
                        </Array>
                    </mxGeometry>
                </mxCell>
                <mxCell id="W2VD9z1xtTbjaSC_eACu-21" style="edgeStyle=orthogonalEdgeStyle;rounded=0;orthogonalLoop=1;jettySize=auto;html=1;entryX=0.5;entryY=0;entryDx=0;entryDy=0;fillColor=#f5f5f5;strokeColor=#666666;" parent="1" source="W2VD9z1xtTbjaSC_eACu-1" target="W2VD9z1xtTbjaSC_eACu-3" edge="1">
                    <mxGeometry relative="1" as="geometry">
                        <Array as="points">
                            <mxPoint x="440" y="60"/>
                            <mxPoint x="660" y="60"/>
                        </Array>
                    </mxGeometry>
                </mxCell>
                <mxCell id="W2VD9z1xtTbjaSC_eACu-1" value="愛心傘租借系統" style="rounded=0;whiteSpace=wrap;html=1;fillColor=#f5f5f5;strokeColor=#666666;fontColor=#333333;" parent="1" vertex="1">
                    <mxGeometry x="380" y="10" width="120" height="30" as="geometry"/>
                </mxCell>
                <mxCell id="W2VD9z1xtTbjaSC_eACu-22" style="edgeStyle=orthogonalEdgeStyle;rounded=0;orthogonalLoop=1;jettySize=auto;html=1;entryX=0.5;entryY=0;entryDx=0;entryDy=0;fillColor=#dae8fc;strokeColor=#6c8ebf;" parent="1" source="W2VD9z1xtTbjaSC_eACu-2" target="W2VD9z1xtTbjaSC_eACu-5" edge="1">
                    <mxGeometry relative="1" as="geometry">
                        <Array as="points">
                            <mxPoint x="180" y="130"/>
                            <mxPoint x="20" y="130"/>
                        </Array>
                    </mxGeometry>
                </mxCell>
                <mxCell id="W2VD9z1xtTbjaSC_eACu-23" style="edgeStyle=orthogonalEdgeStyle;rounded=0;orthogonalLoop=1;jettySize=auto;html=1;entryX=0.5;entryY=0;entryDx=0;entryDy=0;fillColor=#dae8fc;strokeColor=#6c8ebf;" parent="1" source="W2VD9z1xtTbjaSC_eACu-2" target="W2VD9z1xtTbjaSC_eACu-9" edge="1">
                    <mxGeometry relative="1" as="geometry">
                        <mxPoint x="220" y="150" as="targetPoint"/>
                    </mxGeometry>
                </mxCell>
                <mxCell id="W2VD9z1xtTbjaSC_eACu-24" style="edgeStyle=orthogonalEdgeStyle;rounded=0;orthogonalLoop=1;jettySize=auto;html=1;entryX=0.5;entryY=0;entryDx=0;entryDy=0;fillColor=#dae8fc;strokeColor=#6c8ebf;" parent="1" source="W2VD9z1xtTbjaSC_eACu-2" target="W2VD9z1xtTbjaSC_eACu-7" edge="1">
                    <mxGeometry relative="1" as="geometry">
                        <Array as="points">
                            <mxPoint x="180" y="130"/>
                            <mxPoint x="340" y="130"/>
                        </Array>
                    </mxGeometry>
                </mxCell>
                <mxCell id="W2VD9z1xtTbjaSC_eACu-2" value="使用者" style="rounded=0;whiteSpace=wrap;html=1;fillColor=#dae8fc;strokeColor=#6c8ebf;fontColor=#000000;" parent="1" vertex="1">
                    <mxGeometry x="120" y="80" width="120" height="30" as="geometry"/>
                </mxCell>
                <mxCell id="H8Y2yIrfdVpz1dwMGRAc-20" style="edgeStyle=orthogonalEdgeStyle;rounded=0;orthogonalLoop=1;jettySize=auto;html=1;entryX=0.5;entryY=0;entryDx=0;entryDy=0;fillColor=#d5e8d4;strokeColor=#82b366;" parent="1" source="W2VD9z1xtTbjaSC_eACu-3" target="H8Y2yIrfdVpz1dwMGRAc-10" edge="1">
                    <mxGeometry relative="1" as="geometry">
                        <Array as="points">
                            <mxPoint x="660" y="130"/>
                            <mxPoint x="500" y="130"/>
                        </Array>
                    </mxGeometry>
                </mxCell>
                <mxCell id="H8Y2yIrfdVpz1dwMGRAc-21" style="edgeStyle=orthogonalEdgeStyle;rounded=0;orthogonalLoop=1;jettySize=auto;html=1;fillColor=#d5e8d4;strokeColor=#82b366;" parent="1" source="W2VD9z1xtTbjaSC_eACu-3" target="H8Y2yIrfdVpz1dwMGRAc-7" edge="1">
                    <mxGeometry relative="1" as="geometry">
                        <Array as="points">
                            <mxPoint x="660" y="140"/>
                            <mxPoint x="660" y="140"/>
                        </Array>
                    </mxGeometry>
                </mxCell>
                <mxCell id="H8Y2yIrfdVpz1dwMGRAc-22" style="edgeStyle=orthogonalEdgeStyle;rounded=0;orthogonalLoop=1;jettySize=auto;html=1;entryX=0.5;entryY=0;entryDx=0;entryDy=0;fillColor=#d5e8d4;strokeColor=#82b366;" parent="1" source="W2VD9z1xtTbjaSC_eACu-3" target="H8Y2yIrfdVpz1dwMGRAc-3" edge="1">
                    <mxGeometry relative="1" as="geometry">
                        <Array as="points">
                            <mxPoint x="660" y="130"/>
                            <mxPoint x="820" y="130"/>
                        </Array>
                    </mxGeometry>
                </mxCell>
                <mxCell id="H8Y2yIrfdVpz1dwMGRAc-23" style="edgeStyle=orthogonalEdgeStyle;rounded=0;orthogonalLoop=1;jettySize=auto;html=1;fillColor=#d5e8d4;strokeColor=#82b366;" parent="1" source="W2VD9z1xtTbjaSC_eACu-3" target="H8Y2yIrfdVpz1dwMGRAc-13" edge="1">
                    <mxGeometry relative="1" as="geometry">
                        <Array as="points">
                            <mxPoint x="660" y="130"/>
                            <mxPoint x="980" y="130"/>
                        </Array>
                    </mxGeometry>
                </mxCell>
                <mxCell id="W2VD9z1xtTbjaSC_eACu-3" value="管理者" style="rounded=0;whiteSpace=wrap;html=1;fillColor=#d5e8d4;strokeColor=#82b366;fontColor=#000000;" parent="1" vertex="1">
                    <mxGeometry x="600" y="80" width="120" height="30" as="geometry"/>
                </mxCell>
                <mxCell id="W2VD9z1xtTbjaSC_eACu-25" style="edgeStyle=orthogonalEdgeStyle;rounded=0;orthogonalLoop=1;jettySize=auto;html=1;entryX=0;entryY=0.5;entryDx=0;entryDy=0;fillColor=#dae8fc;strokeColor=#6c8ebf;" parent="1" source="W2VD9z1xtTbjaSC_eACu-5" target="W2VD9z1xtTbjaSC_eACu-8" edge="1">
                    <mxGeometry relative="1" as="geometry">
                        <Array as="points">
                            <mxPoint x="-60" y="175"/>
                            <mxPoint x="-60" y="235"/>
                        </Array>
                    </mxGeometry>
                </mxCell>
                <mxCell id="W2VD9z1xtTbjaSC_eACu-26" style="edgeStyle=orthogonalEdgeStyle;rounded=0;orthogonalLoop=1;jettySize=auto;html=1;entryX=0;entryY=0.5;entryDx=0;entryDy=0;fillColor=#dae8fc;strokeColor=#6c8ebf;" parent="1" source="W2VD9z1xtTbjaSC_eACu-5" target="W2VD9z1xtTbjaSC_eACu-6" edge="1">
                    <mxGeometry relative="1" as="geometry">
                        <Array as="points">
                            <mxPoint x="-60" y="175"/>
                            <mxPoint x="-60" y="285"/>
                        </Array>
                    </mxGeometry>
                </mxCell>
                <mxCell id="W2VD9z1xtTbjaSC_eACu-27" style="edgeStyle=orthogonalEdgeStyle;rounded=0;orthogonalLoop=1;jettySize=auto;html=1;entryX=0;entryY=0.5;entryDx=0;entryDy=0;fillColor=#dae8fc;strokeColor=#6c8ebf;" parent="1" source="W2VD9z1xtTbjaSC_eACu-5" target="W2VD9z1xtTbjaSC_eACu-11" edge="1">
                    <mxGeometry relative="1" as="geometry">
                        <Array as="points">
                            <mxPoint x="-60" y="175"/>
                            <mxPoint x="-60" y="335"/>
                        </Array>
                    </mxGeometry>
                </mxCell>
                <mxCell id="W2VD9z1xtTbjaSC_eACu-29" style="edgeStyle=orthogonalEdgeStyle;rounded=0;orthogonalLoop=1;jettySize=auto;html=1;entryX=0;entryY=0.5;entryDx=0;entryDy=0;fillColor=#dae8fc;strokeColor=#6c8ebf;" parent="1" source="W2VD9z1xtTbjaSC_eACu-5" target="W2VD9z1xtTbjaSC_eACu-12" edge="1">
                    <mxGeometry relative="1" as="geometry">
                        <Array as="points">
                            <mxPoint x="-60" y="175"/>
                            <mxPoint x="-60" y="385"/>
                        </Array>
                    </mxGeometry>
                </mxCell>
                <mxCell id="W2VD9z1xtTbjaSC_eACu-5" value="用戶相關" style="rounded=0;whiteSpace=wrap;html=1;fillColor=#dae8fc;strokeColor=#6c8ebf;fontColor=#000000;" parent="1" vertex="1">
                    <mxGeometry x="-40" y="160" width="120" height="30" as="geometry"/>
                </mxCell>
                <mxCell id="W2VD9z1xtTbjaSC_eACu-6" value="註冊" style="rounded=0;whiteSpace=wrap;html=1;fillColor=#dae8fc;strokeColor=#6c8ebf;fontColor=#000000;" parent="1" vertex="1">
                    <mxGeometry x="-40" y="270" width="120" height="30" as="geometry"/>
                </mxCell>
                <mxCell id="W2VD9z1xtTbjaSC_eACu-37" style="edgeStyle=orthogonalEdgeStyle;rounded=0;orthogonalLoop=1;jettySize=auto;html=1;entryX=0;entryY=0.5;entryDx=0;entryDy=0;fillColor=#dae8fc;strokeColor=#6c8ebf;" parent="1" source="W2VD9z1xtTbjaSC_eACu-7" target="W2VD9z1xtTbjaSC_eACu-10" edge="1">
                    <mxGeometry relative="1" as="geometry">
                        <Array as="points">
                            <mxPoint x="260" y="175"/>
                            <mxPoint x="260" y="235"/>
                        </Array>
                    </mxGeometry>
                </mxCell>
                <mxCell id="W2VD9z1xtTbjaSC_eACu-38" style="edgeStyle=orthogonalEdgeStyle;rounded=0;orthogonalLoop=1;jettySize=auto;html=1;entryX=0;entryY=0.5;entryDx=0;entryDy=0;fillColor=#dae8fc;strokeColor=#6c8ebf;" parent="1" source="W2VD9z1xtTbjaSC_eACu-7" target="W2VD9z1xtTbjaSC_eACu-13" edge="1">
                    <mxGeometry relative="1" as="geometry">
                        <Array as="points">
                            <mxPoint x="260" y="175"/>
                            <mxPoint x="260" y="285"/>
                        </Array>
                    </mxGeometry>
                </mxCell>
                <mxCell id="W2VD9z1xtTbjaSC_eACu-7" value="問題相關" style="rounded=0;whiteSpace=wrap;html=1;fillColor=#dae8fc;strokeColor=#6c8ebf;fontColor=#000000;" parent="1" vertex="1">
                    <mxGeometry x="280" y="160" width="120" height="30" as="geometry"/>
                </mxCell>
                <mxCell id="W2VD9z1xtTbjaSC_eACu-8" value="登入" style="rounded=0;whiteSpace=wrap;html=1;fillColor=#dae8fc;strokeColor=#6c8ebf;fontColor=#000000;" parent="1" vertex="1">
                    <mxGeometry x="-40" y="220" width="120" height="30" as="geometry"/>
                </mxCell>
                <mxCell id="W2VD9z1xtTbjaSC_eACu-32" style="edgeStyle=orthogonalEdgeStyle;rounded=0;orthogonalLoop=1;jettySize=auto;html=1;entryX=0;entryY=0.5;entryDx=0;entryDy=0;fillColor=#dae8fc;strokeColor=#6c8ebf;" parent="1" source="W2VD9z1xtTbjaSC_eACu-9" target="W2VD9z1xtTbjaSC_eACu-15" edge="1">
                    <mxGeometry relative="1" as="geometry">
                        <Array as="points">
                            <mxPoint x="100" y="175"/>
                            <mxPoint x="100" y="235"/>
                        </Array>
                    </mxGeometry>
                </mxCell>
                <mxCell id="W2VD9z1xtTbjaSC_eACu-33" style="edgeStyle=orthogonalEdgeStyle;rounded=0;orthogonalLoop=1;jettySize=auto;html=1;entryX=0;entryY=0.5;entryDx=0;entryDy=0;fillColor=#dae8fc;strokeColor=#6c8ebf;" parent="1" source="W2VD9z1xtTbjaSC_eACu-9" target="W2VD9z1xtTbjaSC_eACu-16" edge="1">
                    <mxGeometry relative="1" as="geometry">
                        <Array as="points">
                            <mxPoint x="100" y="175"/>
                            <mxPoint x="100" y="285"/>
                        </Array>
                    </mxGeometry>
                </mxCell>
                <mxCell id="W2VD9z1xtTbjaSC_eACu-34" style="edgeStyle=orthogonalEdgeStyle;rounded=0;orthogonalLoop=1;jettySize=auto;html=1;entryX=0;entryY=0.5;entryDx=0;entryDy=0;fillColor=#dae8fc;strokeColor=#6c8ebf;" parent="1" source="W2VD9z1xtTbjaSC_eACu-9" target="W2VD9z1xtTbjaSC_eACu-19" edge="1">
                    <mxGeometry relative="1" as="geometry">
                        <Array as="points">
                            <mxPoint x="100" y="175"/>
                            <mxPoint x="100" y="335"/>
                        </Array>
                    </mxGeometry>
                </mxCell>
                <mxCell id="W2VD9z1xtTbjaSC_eACu-35" style="edgeStyle=orthogonalEdgeStyle;rounded=0;orthogonalLoop=1;jettySize=auto;html=1;entryX=0;entryY=0.5;entryDx=0;entryDy=0;fillColor=#dae8fc;strokeColor=#6c8ebf;" parent="1" source="W2VD9z1xtTbjaSC_eACu-9" target="W2VD9z1xtTbjaSC_eACu-17" edge="1">
                    <mxGeometry relative="1" as="geometry">
                        <Array as="points">
                            <mxPoint x="100" y="175"/>
                            <mxPoint x="100" y="385"/>
                        </Array>
                    </mxGeometry>
                </mxCell>
                <mxCell id="W2VD9z1xtTbjaSC_eACu-36" style="edgeStyle=orthogonalEdgeStyle;rounded=0;orthogonalLoop=1;jettySize=auto;html=1;entryX=0;entryY=0.5;entryDx=0;entryDy=0;fillColor=#dae8fc;strokeColor=#6c8ebf;" parent="1" source="W2VD9z1xtTbjaSC_eACu-9" target="W2VD9z1xtTbjaSC_eACu-18" edge="1">
                    <mxGeometry relative="1" as="geometry">
                        <Array as="points">
                            <mxPoint x="100" y="175"/>
                            <mxPoint x="100" y="435"/>
                        </Array>
                    </mxGeometry>
                </mxCell>
                <mxCell id="W2VD9z1xtTbjaSC_eACu-9" value="租借相關" style="rounded=0;whiteSpace=wrap;html=1;fillColor=#dae8fc;strokeColor=#6c8ebf;fontColor=#000000;" parent="1" vertex="1">
                    <mxGeometry x="120" y="160" width="120" height="30" as="geometry"/>
                </mxCell>
                <mxCell id="W2VD9z1xtTbjaSC_eACu-10" value="常見問題" style="rounded=0;whiteSpace=wrap;html=1;fillColor=#dae8fc;strokeColor=#6c8ebf;fontColor=#000000;" parent="1" vertex="1">
                    <mxGeometry x="280" y="220" width="120" height="30" as="geometry"/>
                </mxCell>
                <mxCell id="W2VD9z1xtTbjaSC_eACu-11" value="忘記密碼" style="rounded=0;whiteSpace=wrap;html=1;fillColor=#dae8fc;strokeColor=#6c8ebf;fontColor=#000000;" parent="1" vertex="1">
                    <mxGeometry x="-40" y="320" width="120" height="30" as="geometry"/>
                </mxCell>
                <mxCell id="W2VD9z1xtTbjaSC_eACu-12" value="修改密碼" style="rounded=0;whiteSpace=wrap;html=1;fillColor=#dae8fc;strokeColor=#6c8ebf;fontColor=#000000;" parent="1" vertex="1">
                    <mxGeometry x="-40" y="370" width="120" height="30" as="geometry"/>
                </mxCell>
                <mxCell id="W2VD9z1xtTbjaSC_eACu-13" value="問題回報" style="rounded=0;whiteSpace=wrap;html=1;fillColor=#dae8fc;strokeColor=#6c8ebf;fontColor=#000000;" parent="1" vertex="1">
                    <mxGeometry x="280" y="270" width="120" height="30" as="geometry"/>
                </mxCell>
                <mxCell id="W2VD9z1xtTbjaSC_eACu-15" value="借傘" style="rounded=0;whiteSpace=wrap;html=1;fillColor=#dae8fc;strokeColor=#6c8ebf;fontColor=#000000;" parent="1" vertex="1">
                    <mxGeometry x="120" y="220" width="120" height="30" as="geometry"/>
                </mxCell>
                <mxCell id="W2VD9z1xtTbjaSC_eACu-16" value="還傘" style="rounded=0;whiteSpace=wrap;html=1;fillColor=#dae8fc;strokeColor=#6c8ebf;fontColor=#000000;" parent="1" vertex="1">
                    <mxGeometry x="120" y="270" width="120" height="30" as="geometry"/>
                </mxCell>
                <mxCell id="W2VD9z1xtTbjaSC_eACu-17" value="租借列表" style="rounded=0;whiteSpace=wrap;html=1;fillColor=#dae8fc;strokeColor=#6c8ebf;fontColor=#000000;" parent="1" vertex="1">
                    <mxGeometry x="120" y="370" width="120" height="30" as="geometry"/>
                </mxCell>
                <mxCell id="W2VD9z1xtTbjaSC_eACu-18" value="天氣預報" style="rounded=0;whiteSpace=wrap;html=1;fillColor=#dae8fc;strokeColor=#6c8ebf;fontColor=#000000;" parent="1" vertex="1">
                    <mxGeometry x="120" y="420" width="120" height="30" as="geometry"/>
                </mxCell>
                <mxCell id="W2VD9z1xtTbjaSC_eACu-19" value="站點地圖" style="rounded=0;whiteSpace=wrap;html=1;fillColor=#dae8fc;strokeColor=#6c8ebf;fontColor=#000000;" parent="1" vertex="1">
                    <mxGeometry x="120" y="320" width="120" height="30" as="geometry"/>
                </mxCell>
                <mxCell id="H8Y2yIrfdVpz1dwMGRAc-1" value="意見回覆" style="rounded=0;whiteSpace=wrap;html=1;fillColor=#d5e8d4;strokeColor=#82b366;fontColor=#000000;" parent="1" vertex="1">
                    <mxGeometry x="760" y="270" width="120" height="30" as="geometry"/>
                </mxCell>
                <mxCell id="H8Y2yIrfdVpz1dwMGRAc-2" value="意見回饋" style="rounded=0;whiteSpace=wrap;html=1;fillColor=#d5e8d4;strokeColor=#82b366;fontColor=#000000;" parent="1" vertex="1">
                    <mxGeometry x="760" y="220" width="120" height="30" as="geometry"/>
                </mxCell>
                <mxCell id="H8Y2yIrfdVpz1dwMGRAc-29" style="edgeStyle=orthogonalEdgeStyle;rounded=0;orthogonalLoop=1;jettySize=auto;html=1;fillColor=#d5e8d4;strokeColor=#82b366;" parent="1" source="H8Y2yIrfdVpz1dwMGRAc-3" edge="1">
                    <mxGeometry relative="1" as="geometry">
                        <mxPoint x="760" y="235" as="targetPoint"/>
                        <Array as="points">
                            <mxPoint x="740" y="175"/>
                            <mxPoint x="740" y="235"/>
                            <mxPoint x="760" y="235"/>
                        </Array>
                    </mxGeometry>
                </mxCell>
                <mxCell id="H8Y2yIrfdVpz1dwMGRAc-30" style="edgeStyle=orthogonalEdgeStyle;rounded=0;orthogonalLoop=1;jettySize=auto;html=1;entryX=0;entryY=0.5;entryDx=0;entryDy=0;fillColor=#d5e8d4;strokeColor=#82b366;" parent="1" source="H8Y2yIrfdVpz1dwMGRAc-3" target="H8Y2yIrfdVpz1dwMGRAc-1" edge="1">
                    <mxGeometry relative="1" as="geometry">
                        <Array as="points">
                            <mxPoint x="740" y="175"/>
                            <mxPoint x="740" y="285"/>
                        </Array>
                    </mxGeometry>
                </mxCell>
                <mxCell id="H8Y2yIrfdVpz1dwMGRAc-31" style="edgeStyle=orthogonalEdgeStyle;rounded=0;orthogonalLoop=1;jettySize=auto;html=1;entryX=0;entryY=0.5;entryDx=0;entryDy=0;fillColor=#d5e8d4;strokeColor=#82b366;" parent="1" source="H8Y2yIrfdVpz1dwMGRAc-3" target="H8Y2yIrfdVpz1dwMGRAc-12" edge="1">
                    <mxGeometry relative="1" as="geometry">
                        <Array as="points">
                            <mxPoint x="740" y="175"/>
                            <mxPoint x="740" y="335"/>
                        </Array>
                    </mxGeometry>
                </mxCell>
                <mxCell id="H8Y2yIrfdVpz1dwMGRAc-3" value="問題相關" style="rounded=0;whiteSpace=wrap;html=1;fillColor=#d5e8d4;strokeColor=#82b366;fontColor=#000000;" parent="1" vertex="1">
                    <mxGeometry x="760" y="160" width="120" height="30" as="geometry"/>
                </mxCell>
                <mxCell id="H8Y2yIrfdVpz1dwMGRAc-4" value="刪除" style="rounded=0;whiteSpace=wrap;html=1;fillColor=#d5e8d4;strokeColor=#82b366;fontColor=#000000;" parent="1" vertex="1">
                    <mxGeometry x="600" y="270" width="120" height="30" as="geometry"/>
                </mxCell>
                <mxCell id="H8Y2yIrfdVpz1dwMGRAc-5" value="修改" style="rounded=0;whiteSpace=wrap;html=1;fillColor=#d5e8d4;strokeColor=#82b366;fontColor=#000000;" parent="1" vertex="1">
                    <mxGeometry x="600" y="320" width="120" height="30" as="geometry"/>
                </mxCell>
                <mxCell id="H8Y2yIrfdVpz1dwMGRAc-6" value="新增" style="rounded=0;whiteSpace=wrap;html=1;fillColor=#d5e8d4;strokeColor=#82b366;fontColor=#000000;" parent="1" vertex="1">
                    <mxGeometry x="600" y="220" width="120" height="30" as="geometry"/>
                </mxCell>
                <mxCell id="H8Y2yIrfdVpz1dwMGRAc-26" style="edgeStyle=orthogonalEdgeStyle;rounded=0;orthogonalLoop=1;jettySize=auto;html=1;fillColor=#d5e8d4;strokeColor=#82b366;" parent="1" source="H8Y2yIrfdVpz1dwMGRAc-7" edge="1">
                    <mxGeometry relative="1" as="geometry">
                        <mxPoint x="600" y="235" as="targetPoint"/>
                        <Array as="points">
                            <mxPoint x="580" y="175"/>
                            <mxPoint x="580" y="235"/>
                            <mxPoint x="600" y="235"/>
                        </Array>
                    </mxGeometry>
                </mxCell>
                <mxCell id="H8Y2yIrfdVpz1dwMGRAc-27" style="edgeStyle=orthogonalEdgeStyle;rounded=0;orthogonalLoop=1;jettySize=auto;html=1;entryX=0;entryY=0.5;entryDx=0;entryDy=0;fillColor=#d5e8d4;strokeColor=#82b366;" parent="1" source="H8Y2yIrfdVpz1dwMGRAc-7" target="H8Y2yIrfdVpz1dwMGRAc-4" edge="1">
                    <mxGeometry relative="1" as="geometry">
                        <Array as="points">
                            <mxPoint x="580" y="175"/>
                            <mxPoint x="580" y="285"/>
                        </Array>
                    </mxGeometry>
                </mxCell>
                <mxCell id="H8Y2yIrfdVpz1dwMGRAc-28" style="edgeStyle=orthogonalEdgeStyle;rounded=0;orthogonalLoop=1;jettySize=auto;html=1;entryX=0;entryY=0.5;entryDx=0;entryDy=0;fillColor=#d5e8d4;strokeColor=#82b366;" parent="1" source="H8Y2yIrfdVpz1dwMGRAc-7" target="H8Y2yIrfdVpz1dwMGRAc-5" edge="1">
                    <mxGeometry relative="1" as="geometry">
                        <Array as="points">
                            <mxPoint x="580" y="175"/>
                            <mxPoint x="580" y="335"/>
                        </Array>
                    </mxGeometry>
                </mxCell>
                <mxCell id="H8Y2yIrfdVpz1dwMGRAc-7" value="站點相關" style="rounded=0;whiteSpace=wrap;html=1;fillColor=#d5e8d4;strokeColor=#82b366;fontColor=#000000;" parent="1" vertex="1">
                    <mxGeometry x="600" y="160" width="120" height="30" as="geometry"/>
                </mxCell>
                <mxCell id="H8Y2yIrfdVpz1dwMGRAc-8" value="註冊" style="rounded=0;whiteSpace=wrap;html=1;fillColor=#d5e8d4;strokeColor=#82b366;fontColor=#000000;" parent="1" vertex="1">
                    <mxGeometry x="440" y="270" width="120" height="30" as="geometry"/>
                </mxCell>
                <mxCell id="H8Y2yIrfdVpz1dwMGRAc-9" value="登入" style="rounded=0;whiteSpace=wrap;html=1;fillColor=#d5e8d4;strokeColor=#82b366;fontColor=#000000;" parent="1" vertex="1">
                    <mxGeometry x="440" y="220" width="120" height="30" as="geometry"/>
                </mxCell>
                <mxCell id="H8Y2yIrfdVpz1dwMGRAc-24" style="edgeStyle=orthogonalEdgeStyle;rounded=0;orthogonalLoop=1;jettySize=auto;html=1;fillColor=#d5e8d4;strokeColor=#82b366;" parent="1" source="H8Y2yIrfdVpz1dwMGRAc-10" edge="1">
                    <mxGeometry relative="1" as="geometry">
                        <mxPoint x="440" y="235" as="targetPoint"/>
                        <Array as="points">
                            <mxPoint x="420" y="175"/>
                            <mxPoint x="420" y="235"/>
                            <mxPoint x="440" y="235"/>
                        </Array>
                    </mxGeometry>
                </mxCell>
                <mxCell id="H8Y2yIrfdVpz1dwMGRAc-25" style="edgeStyle=orthogonalEdgeStyle;rounded=0;orthogonalLoop=1;jettySize=auto;html=1;entryX=0;entryY=0.5;entryDx=0;entryDy=0;fillColor=#d5e8d4;strokeColor=#82b366;" parent="1" source="H8Y2yIrfdVpz1dwMGRAc-10" target="H8Y2yIrfdVpz1dwMGRAc-8" edge="1">
                    <mxGeometry relative="1" as="geometry">
                        <Array as="points">
                            <mxPoint x="420" y="175"/>
                            <mxPoint x="420" y="285"/>
                        </Array>
                    </mxGeometry>
                </mxCell>
                <mxCell id="H8Y2yIrfdVpz1dwMGRAc-10" value="用戶相關" style="rounded=0;whiteSpace=wrap;html=1;fillColor=#d5e8d4;strokeColor=#82b366;fontColor=#000000;" parent="1" vertex="1">
                    <mxGeometry x="440" y="160" width="120" height="30" as="geometry"/>
                </mxCell>
                <mxCell id="H8Y2yIrfdVpz1dwMGRAc-12" value="意見列表" style="rounded=0;whiteSpace=wrap;html=1;fillColor=#d5e8d4;strokeColor=#82b366;fontColor=#000000;" parent="1" vertex="1">
                    <mxGeometry x="760" y="320" width="120" height="30" as="geometry"/>
                </mxCell>
                <mxCell id="H8Y2yIrfdVpz1dwMGRAc-32" style="edgeStyle=orthogonalEdgeStyle;rounded=0;orthogonalLoop=1;jettySize=auto;html=1;entryX=0;entryY=0.5;entryDx=0;entryDy=0;fillColor=#d5e8d4;strokeColor=#82b366;" parent="1" source="H8Y2yIrfdVpz1dwMGRAc-13" target="H8Y2yIrfdVpz1dwMGRAc-14" edge="1">
                    <mxGeometry relative="1" as="geometry">
                        <Array as="points">
                            <mxPoint x="900" y="175"/>
                            <mxPoint x="900" y="235"/>
                        </Array>
                    </mxGeometry>
                </mxCell>
                <mxCell id="H8Y2yIrfdVpz1dwMGRAc-33" style="edgeStyle=orthogonalEdgeStyle;rounded=0;orthogonalLoop=1;jettySize=auto;html=1;entryX=0;entryY=0.5;entryDx=0;entryDy=0;fillColor=#d5e8d4;strokeColor=#82b366;" parent="1" source="H8Y2yIrfdVpz1dwMGRAc-13" target="H8Y2yIrfdVpz1dwMGRAc-15" edge="1">
                    <mxGeometry relative="1" as="geometry">
                        <Array as="points">
                            <mxPoint x="900" y="175"/>
                            <mxPoint x="900" y="385"/>
                        </Array>
                    </mxGeometry>
                </mxCell>
                <mxCell id="H8Y2yIrfdVpz1dwMGRAc-34" style="edgeStyle=orthogonalEdgeStyle;rounded=0;orthogonalLoop=1;jettySize=auto;html=1;entryX=0;entryY=0.5;entryDx=0;entryDy=0;fillColor=#d5e8d4;strokeColor=#82b366;" parent="1" source="H8Y2yIrfdVpz1dwMGRAc-13" target="H8Y2yIrfdVpz1dwMGRAc-16" edge="1">
                    <mxGeometry relative="1" as="geometry">
                        <Array as="points">
                            <mxPoint x="900" y="175"/>
                            <mxPoint x="900" y="285"/>
                        </Array>
                    </mxGeometry>
                </mxCell>
                <mxCell id="H8Y2yIrfdVpz1dwMGRAc-35" style="edgeStyle=orthogonalEdgeStyle;rounded=0;orthogonalLoop=1;jettySize=auto;html=1;entryX=0;entryY=0.5;entryDx=0;entryDy=0;fillColor=#d5e8d4;strokeColor=#82b366;" parent="1" source="H8Y2yIrfdVpz1dwMGRAc-13" target="H8Y2yIrfdVpz1dwMGRAc-17" edge="1">
                    <mxGeometry relative="1" as="geometry">
                        <Array as="points">
                            <mxPoint x="900" y="175"/>
                            <mxPoint x="900" y="335"/>
                        </Array>
                    </mxGeometry>
                </mxCell>
                <mxCell id="H8Y2yIrfdVpz1dwMGRAc-13" value="報修相關" style="rounded=0;whiteSpace=wrap;html=1;fillColor=#d5e8d4;strokeColor=#82b366;fontColor=#000000;" parent="1" vertex="1">
                    <mxGeometry x="920" y="160" width="120" height="30" as="geometry"/>
                </mxCell>
                <mxCell id="H8Y2yIrfdVpz1dwMGRAc-14" value="申請" style="rounded=0;whiteSpace=wrap;html=1;fillColor=#d5e8d4;strokeColor=#82b366;fontColor=#000000;" parent="1" vertex="1">
                    <mxGeometry x="920" y="220" width="120" height="30" as="geometry"/>
                </mxCell>
                <mxCell id="H8Y2yIrfdVpz1dwMGRAc-15" value="查詢" style="rounded=0;whiteSpace=wrap;html=1;fillColor=#d5e8d4;strokeColor=#82b366;fontColor=#000000;" parent="1" vertex="1">
                    <mxGeometry x="920" y="370" width="120" height="30" as="geometry"/>
                </mxCell>
                <mxCell id="H8Y2yIrfdVpz1dwMGRAc-16" value="接單" style="rounded=0;whiteSpace=wrap;html=1;fillColor=#d5e8d4;strokeColor=#82b366;fontColor=#000000;" parent="1" vertex="1">
                    <mxGeometry x="920" y="270" width="120" height="30" as="geometry"/>
                </mxCell>
                <mxCell id="H8Y2yIrfdVpz1dwMGRAc-17" value="完工" style="rounded=0;whiteSpace=wrap;html=1;fillColor=#d5e8d4;strokeColor=#82b366;fontColor=#000000;" parent="1" vertex="1">
                    <mxGeometry x="920" y="320" width="120" height="30" as="geometry"/>
                </mxCell>
                <mxCell id="H8Y2yIrfdVpz1dwMGRAc-18" value="查詢" style="rounded=0;whiteSpace=wrap;html=1;fillColor=#d5e8d4;strokeColor=#82b366;fontColor=#000000;" parent="1" vertex="1">
                    <mxGeometry x="600" y="370" width="120" height="30" as="geometry"/>
                </mxCell>
            </root>
        </mxGraphModel>
    </diagram>
</mxfile>